HIERARCHY
ROOT Hips
{
    OFFSET 0.0 0.0 0.0
    CHANNELS 6 Xposition Yposition Zposition Zrotation Xrotation Yrotation
    JOINT LeftHipJoint
    {
        OFFSET 0.1 0.0 0.0
        CHANNELS 3 Zrotation Xrotation Yrotation
        JOINT LeftUpLeg
        {
            OFFSET 124.31395697935153 0.0 0.0
            CHANNELS 3 Zrotation Xrotation Yrotation
            JOINT LeftLeg
            {
                OFFSET 0.0 0.0 -416.81563884335327
                CHANNELS 3 Zrotation Xrotation Yrotation
                JOINT LeftFoot
                {
                    OFFSET 0.0 0.0 -397.40540413845935
                    CHANNELS 3 Zrotation Xrotation Yrotation
                    End Site
                    {
                        OFFSET 0.0 -0.1 0.0
                    }
                }
            }
        }
    }
    JOINT LowerBack
    {
        OFFSET 0.0 0.0 0.1
        CHANNELS 3 Zrotation Xrotation Yrotation
        JOINT Spine
        {
            OFFSET 0.0 0.0 220.2361962759298
            CHANNELS 3 Zrotation Xrotation Yrotation
            JOINT Spine1
            {
                OFFSET 0.0 0.0 252.56758756150393
                CHANNELS 3 Zrotation Xrotation Yrotation
                JOINT LeftShoulder
                {
                    OFFSET 0.1 0.0 0.0
                    CHANNELS 3 Zrotation Xrotation Yrotation
                    JOINT LeftArm
                    {
                        OFFSET 142.33321259839272 0.0 0.0
                        CHANNELS 3 Zrotation Xrotation Yrotation
                        JOINT LeftForeArm
                        {
                            OFFSET 260.3739383193987 0.0 0.0
                            CHANNELS 3 Zrotation Xrotation Yrotation
                            JOINT LeftHand
                            {
                                OFFSET 241.27488857420082 0.0 0.0
                                CHANNELS 3 Zrotation Xrotation Yrotation
                                End Site
                                {
                                    OFFSET 0.1 0.0 0.0
                                }
                            }
                        }
                    }
                }
                JOINT Neck
                {
                    OFFSET 0.0 0.0 0.1
                    CHANNELS 3 Zrotation Xrotation Yrotation
                    JOINT Neck1
                    {
                        OFFSET 0.0 0.0 106.43497429148934
                        CHANNELS 3 Zrotation Xrotation Yrotation
                        End Site
                        {
                            OFFSET 0.0 0.0 115.17785232857722
                        }
                    }
                }
                JOINT RightShoulder
                {
                    OFFSET -0.1 0.0 0.0
                    CHANNELS 3 Zrotation Xrotation Yrotation
                    JOINT RightArm
                    {
                        OFFSET -142.33321259839272 0.0 0.0
                        CHANNELS 3 Zrotation Xrotation Yrotation
                        JOINT RightForeArm
                        {
                            OFFSET -260.3739383193987 0.0 0.0
                            CHANNELS 3 Zrotation Xrotation Yrotation
                            JOINT RightHand
                            {
                                OFFSET -241.27488857420082 0.0 0.0
                                CHANNELS 3 Zrotation Xrotation Yrotation
                                End Site
                                {
                                    OFFSET -0.1 0.0 0.0
                                }
                            }
                        }
                    }
                }
            }
        }
    }
    JOINT RightHipJoint
    {
        OFFSET -0.1 0.0 0.0
        CHANNELS 3 Zrotation Xrotation Yrotation
        JOINT RightUpLeg
        {
            OFFSET -124.31395697935153 0.0 0.0
            CHANNELS 3 Zrotation Xrotation Yrotation
            JOINT RightLeg
            {
                OFFSET 0.0 0.0 -416.81563884335327
                CHANNELS 3 Zrotation Xrotation Yrotation
                JOINT RightFoot
                {
                    OFFSET 0.0 0.0 -397.40540413845935
                    CHANNELS 3 Zrotation Xrotation Yrotation
                    End Site
                    {
                        OFFSET 0.0 -0.1 0.0
                    }
                }
            }
        }
    }
}
MOTION
Frames: 5
Frame Time: 0.03333333333333333
0.0 0.0 815.6358488349501 27.33594184074122 5.355804676283891 3.4250316982656273 0.0 0.0 -1.987846675914698e-16 -0.19373635634550895 -24.121527870569334 -2.3859422276405162 -1.2419978638888514 33.054330438657516 0.09933110812848799 0.0 0.0 -3.975693351829396e-16 0.0 0.0 -1.987846675914698e-16 -0.008084412936094661 -1.0560141461398516 -1.1692009609022544 -3.97073791261899 1.8489183058467257e-16 4.0421743076011024e-16 0.0 0.0 0.0 -25.591922583455094 10.967772393040278 76.62918354260248 -17.881570857713147 9.926976521647194e-15 -1.7051984803738106e-14 0.0 0.0 -2.1058750722971333e-15 0.0 0.0 0.0 -1.6150709672847232 -2.6033007066255043 -4.664155371082443 0.0 0.0 0.0 10.400724502448458 19.78980562127037 -77.0325214687143 57.03095087815761 -7.107816173793158e-15 2.420529868889164e-16 0.0 0.0 3.975693351829396e-16 0.0 0.0 -1.987846675914698e-16 -0.12743740753944224 -15.923251755506946 -3.261350491699682 -1.4293967545995057 26.997611309637158 0.12216608685932118 0.0 0.0 0.0
0.0 0.0 815.6358488349501 27.3738939222392 5.324911515747952 3.4861559545151217 0.0 0.0 -1.987846675914698e-16 -0.17181027115505298 -24.05458792898883 -2.474820268763462 -1.3315841191188655 33.000794146281024 0.20167099657718446 0.0 0.0 0.0 0.0 0.0 -1.987846675914698e-16 -0.0069832546988074055 -1.0242358135996508 -1.2173580312763408 -3.7839182597322862 6.652385589183504e-17 9.966629391880306e-16 0.0 0.0 -2.981770013872047e-16 -25.92915346733438 11.12762566370498 76.61202594199547 -17.80342976460807 7.512522169600098e-15 -1.7133283779661033e-14 1.9741885590888405e-32 7.951386703658792e-16 -2.8451055549029115e-15 0.0 0.0 -2.981770013872047e-16 -1.966664315576036 -2.4948292993081447 -4.793447483676019 0.0 0.0 -2.981770013872047e-16 10.08212092577208 19.17226191209013 -76.6445529417602 58.04587177013672 -1.2972705810226743e-14 -3.7142441267827486e-15 0.0 0.0 1.3914926731402886e-15 0.0 0.0 -1.987846675914698e-16 -0.11289392663323196 -15.82144853303925 -3.2922019586514986 -1.4541096614345104 26.734621284050206 0.108729351915939 0.0 -3.1805546814635168e-15 0.0
0.0 0.0 815.6358488349501 27.368208641371627 5.133048739317576 3.565760812819422 0.0 0.0 -3.975693351829396e-16 -0.1301094912338259 -23.794235499051126 -2.559892484364887 -1.440923203581889 32.8097533652778 0.23066186746489623 0.0 0.0 0.0 0.0 0.0 -3.975693351829396e-16 -0.005089652965415117 -0.9702634910873792 -1.2710954197465099 -3.704829669380233 1.2183046605011304e-16 -6.921698768439375e-16 0.0 0.0 3.975693351829396e-16 -25.93933618291794 11.07014125162577 76.5336507469827 -17.652638226408904 1.6397638916124164e-15 -5.378052587631049e-15 0.0 0.0 -2.0810269888481995e-15 0.0 0.0 3.975693351829396e-16 -2.2092926033516482 -2.2649827194474303 -5.009751653986058 0.0 0.0 3.975693351829396e-16 9.973638188850218 18.51747823232457 -75.93889954416153 59.61121309689917 1.580922921879027e-15 2.759820790713951e-15 0.0 0.0 -9.93923337957349e-16 0.0 0.0 -3.975693351829396e-16 -0.0853022183429116 -15.48064893688029 -3.390570619487105 -1.5134544375858947 26.16901930087131 0.11460566163775691 0.0 0.0 0.0
0.0 0.0 815.6358488349501 27.37635373705794 4.968721051873009 3.6817341561899335 0.0 0.0 0.0 -0.1370686440176438 -23.46712298224871 -2.7239043629909556 -1.518828337073267 32.56871854326705 0.22604371198677525 0.0 0.0 0.0 0.0 0.0 0.0 -0.005646101500591154 -1.007703305260891 -1.3900455294450713 -3.543554411246702 3.850870470780507e-16 4.0967147658619865e-16 0.0 0.0 0.0 -26.125712144946178 11.006362425496727 76.49550616555452 -17.418543391205954 -2.2291939194693663e-15 -1.1703832244307278e-14 7.95138670365879e-16 -4.987196862152377e-32 -7.187308137604079e-15 0.0 0.0 0.0 -2.406044544155228 -2.0125716325583736 -5.0582013028633295 0.0 0.0 0.0 9.497739708620818 17.502983024521182 -75.14057191289585 61.012150338805306 -2.592145448953548e-15 -1.6930525577874853e-14 0.0 0.0 2.708441095933776e-15 0.0 0.0 0.0 -0.08861497098195 -15.107970104513596 -3.5683233296312373 -1.555415674971323 25.66056140608307 0.17313530802125193 0.0 0.0 3.975693351829396e-16
0.0 0.0 815.6358488349501 27.362399676541486 4.732009935728762 3.8641939500232403 0.0 0.0 0.0 -0.18233617761964743 -23.041620273196727 -2.943435884528855 -1.5628720262548084 32.260138848010584 0.18285947237749428 0.0 0.0 3.975693351829396e-16 0.0 0.0 0.0 -0.007925583496160205 -1.0468031424123516 -1.6475011452407295 -3.3372557977119537 -4.1187174160894745e-16 4.851741390221521e-16 0.0 0.0 -2.981770013872047e-16 -26.365289084633613 10.716744309049464 76.39666722860274 -17.17662259466581 -5.072250669793619e-15 -1.433617611056811e-14 0.0 0.0 4.845376272542076e-16 0.0 0.0 -2.981770013872047e-16 -2.571412263376036 -1.8118422804887853 -5.126425951445074 0.0 0.0 -2.981770013872047e-16 8.780426226085229 16.30470234637854 -74.0726960744811 62.69751003769803 1.1582696248332987e-14 1.9013721982453823e-14 0.0 0.0 -2.3854160110976376e-15 0.0 0.0 0.0 -0.11443903389060958 -14.553295104200037 -3.8360300736793262 -1.5743609363586448 24.908913080737634 0.3119703191908056 0.0 0.0 0.0
